<?xml version="1.0" encoding="iso-8859-1"?>
<!-- Generator: Adobe Illustrator 17.1.0, SVG Export Plug-In . SVG Version: 6.00 Build 0)  -->
<!DOCTYPE svg PUBLIC "-//W3C//DTD SVG 1.1//EN" "http://www.w3.org/Graphics/SVG/1.1/DTD/svg11.dtd">
<svg xmlns="http://www.w3.org/2000/svg" xmlns:xlink="http://www.w3.org/1999/xlink" version="1.1" id="Capa_1" x="0px" y="0px" viewBox="0 0 166.375 166.375" style="enable-background:new 0 0 166.375 166.375;" xml:space="preserve" width="512px" height="512px">
<path d="M153.551,152.792H12.823C5.753,152.792,0,147.039,0,139.968V52.488  c0-7.07,5.753-12.823,12.823-12.823h36.214V24.776c0-6.172,5.021-11.193,11.193-11.193h45.913c6.173,0,11.194,5.021,11.194,11.193  v14.889h36.213c7.071,0,12.824,5.753,12.824,12.823v87.479C166.375,147.039,160.622,152.792,153.551,152.792z M5,71.079v68.889  c0,4.314,3.51,7.824,7.823,7.824h140.728c4.314,0,7.824-3.51,7.824-7.824V71.009L94.71,94.777v14.854c0,1.381-1.119,2.5-2.5,2.5  H74.165c-1.381,0-2.5-1.119-2.5-2.5V94.782L5,71.079z M83.188,107.131h6.522V96.56l-5.675,2.023  c-0.542,0.192-1.134,0.195-1.678,0.001l-5.692-2.024v10.571H83.188z M5,65.772l78.194,27.803L161.375,65.7V52.488  c0-4.313-3.51-7.823-7.824-7.823H12.823C8.51,44.665,5,48.175,5,52.488V65.772z M54.037,39.665h58.301V24.776  c0-3.415-2.778-6.193-6.194-6.193H60.23c-3.415,0-6.193,2.778-6.193,6.193V39.665z" fill="#FFFFFF"/>
<g>
</g>
<g>
</g>
<g>
</g>
<g>
</g>
<g>
</g>
<g>
</g>
<g>
</g>
<g>
</g>
<g>
</g>
<g>
</g>
<g>
</g>
<g>
</g>
<g>
</g>
<g>
</g>
<g>
</g>
</svg>
